<?xml version="1.0" encoding="utf-8"?>
<!-- Generator: Adobe Illustrator 15.0.2, SVG Export Plug-In . SVG Version: 6.00 Build 0)  -->
<!DOCTYPE svg PUBLIC "-//W3C//DTD SVG 1.1//EN" "http://www.w3.org/Graphics/SVG/1.1/DTD/svg11.dtd">
<svg version="1.1" id="Calque_1" xmlns="http://www.w3.org/2000/svg" xmlns:xlink="http://www.w3.org/1999/xlink" x="0px" y="0px"
	 width="595.28px" height="841.89px" viewBox="0 0 595.28 841.89" enable-background="new 0 0 595.28 841.89" xml:space="preserve">
<g>
	<path fill-rule="evenodd" clip-rule="evenodd" fill="#FBC400" d="M517.454,380.923c0.021,0.006,0.04,0.012,0.061,0.019
		c-0.008-0.018-0.017-0.037-0.024-0.055L517.454,380.923z"/>
	<path fill-rule="evenodd" clip-rule="evenodd" fill="#FBC400" d="M517.926,381.876c0.171-0.216,0.34-0.433,0.511-0.649
		c-0.307-0.095-0.615-0.189-0.922-0.285C517.651,381.253,517.788,381.565,517.926,381.876z"/>
	<path fill-rule="evenodd" clip-rule="evenodd" fill="#FBC400" d="M217.551,436.436c13.129-9.98,21.373-22.852,25.164-38.938
		c2.365-10.036,3.087-20.559,8.351-29.838c8.772-15.465,18.161-30.516,29.04-44.604c3.327-4.309,7.121-8.065,11.621-11.246
		c5.727-4.047,10.467-0.017,16.104,1.83c-0.459-3.665-0.908-6.647-1.189-9.646c-0.791-8.434,2.191-17.203,7.284-17.992
		c5.558-0.859,5.872-4.173,6.646-8.215c3.539-18.502,8.969-36.478,15.697-54.051c2.855-7.458,8.076-12.554,16.297-13.885
		c3.402-0.55,6.889-0.708,10.23-1.494c13.043-3.068,18.791-7.32,17.881-21.099c-0.473-7.17,2.551-11.643,8.736-14.487
		c7.744-3.562,13.289-9.12,15.818-17.402c0.992-3.251,2.811-5.958,6.217-6.577c9.002-1.636,14.361-7.465,18.264-15.113
		c2.645-5.186,7.354-9.903,12.455-8.008c9.271,3.448,11.793-1.07,13.82-8.164c0.221-0.773,0.867-1.435,1.35-2.123
		c5.98-8.53,13.766-15.25,21.777-21.75c10.488-8.506,20.111-18.07,30.613-26.477c18.76-15.016,38.35-28.978,59.018-41.37
		c13.559-8.13,26.805-16.789,40.441-25.369c-4.664-1.378-8.594,0.312-12.602,0.951c-25.408,4.058-50.012,10.694-73.422,21.693
		c-39.844,18.718-73.848,45.241-103.941,77.008c-8.672,9.155-18.992,13.38-31.244,11.821c-5.266-0.671-6.943,1.841-8.291,5.602
		c-4.613,12.876-12.793,23.321-22.398,32.719c-12.547,12.28-27.049,22.021-41.805,31.386c-12.838,8.146-22.918,17.749-27.951,33.304
		c-6.207,19.189-19.692,33.934-36.525,45.195c-2.615,1.75-4.268,3.006-3.478,6.5c1.399,6.179-0.979,11.434-4.763,16.235
		c-6.477,8.221-13.5,16.049-18.462,26.327c-1.739-6.252-6.065-4.809-9.661-4.449c-3.957,0.396-3.172,4.026-3.38,6.534
		c-0.823,9.952-3.543,14.34-10.339,14.352c-7.4,0.014-11.937,3.744-15.775,9.471c-7.277,10.858-10.572,23.252-14.357,35.501
		c-3.729,12.063-3.819,25.098-9.592,36.579c-7.849,15.609-18.447,29.414-28.747,43.426c-6.681,9.09-16.948,16.613-13.899,30.281
		c1.746,7.834-1.959,13.779-6.227,20.127c-9.012,13.406-20.559,25.529-24.758,41.648c-4.027,15.463-6.887,31.227-10.572,46.783
		c-3.219,13.584-8.491,25.994-20.342,34.725c-5.066,3.734-8.439,8.945-9.878,15.422c-0.924,4.16-3.341,7.709-6.196,11.137
		c-5.287,6.348-11.145,12.367-13.604,20.744c-2.657,9.043-7.597,16.705-15.35,22.453c-1.72,1.273-4.188,2.482-3.831,5.535
		c0.736,6.277-0.191,12.459-0.965,18.695c-2.377,19.186-5.896,38.096-14.591,55.531c-5.776,11.584-8.251,23.963-8.713,36.498
		c-0.637,17.273-1.412,34.645,1.089,51.893c0.434,0,0.867,0,1.303,0c0.678-1.762,2.28-2.43,3.814-3.125
		c7.458-3.393,13.072-9.313,17.813-15.447c12.755-16.506,19.268-35.805,23.094-56.191c0.949-5.063,0.762-10.107,1.52-15.135
		c2.153-14.281,11.04-22.529,23.922-27.111c5.031-1.791,6.729-4.982,5.475-9.781c-3.613-13.818-0.68-26.574,5.991-38.752
		c10.05-18.348,22.149-35.17,37.249-49.746c2.972-2.867,5.343-5.621,5.006-10.533c-0.928-13.525,4.566-21.813,17.516-25.928
		c5.527-1.754,6.655-3.371,4.692-9.068c-3.157-9.16,0.083-14.844,8.966-19.305c8.734-4.387,14.886-11.131,17.559-20.639
		c0.881-3.133,2.455-6.799-3.267-7.752c-3.212-0.535-3.65-4.369-4.13-6.793c-0.528-2.67,2.928-2.381,4.727-2.928
		c3.09-0.938,6.314-1.814,9.508-1.916c4.175-0.135,4.477-1.771,3.598-5.328c-2.887-11.67-1.024-22.787,4.84-33.211
		c4.722-8.389,10.672-15.758,18.347-21.709c1.319-1.02,4.784-1.889,2.038-4.758c-6.402-6.686-2.813-12.77,1.17-18.648
		C201.277,449.508,209.252,442.744,217.551,436.436z"/>
	<path fill-rule="evenodd" clip-rule="evenodd" fill="#FBC400" d="M33.268,442.439c7.037-7.207,13.914-15.018,15.895-25.579
		c0.666-3.557-0.844-8.702,6.078-7.104c0.864,0.199,2.362-1.707,3.356-2.824c4.053-4.558,7.737-9.416,9.532-15.328
		c1.107-3.643,3.264-5.886,6.75-7.218c5.688-2.172,10.062-5.939,12.682-11.496c4.045-8.583,9.914-15.807,16.938-22.008
		c3.104-2.742,4.412-5.505,3.788-9.527c-0.688-4.454,0.467-8.698,2.838-12.415c18.407-28.864,35.504-59.007,69.394-73.183
		c2.013-0.842,2.912-1.959,1.635-3.896c-6.587-9.987-1.878-18.709,3.276-27.142c6.027-9.86,14.162-18.022,22.023-26.429
		c4.546-4.864,9.273-6.06,15.064-3.524c3.684,1.612,4.98,1.135,5.877-3.248c2.949-14.406,8.733-27.833,18.662-38.73
		c7.282-7.993,12.873-16.789,17.482-26.382c3.519-7.327,8.875-9.771,16.557-6.685c3.559,1.428,4.686,0.851,5.682-2.792
		c3.053-11.177,9.407-20.462,18.078-27.974c12.127-10.506,24.488-20.749,36.928-30.883c4.684-3.816,9.797-7.104,15.67-9.024
		c1.703-0.557,3.9-1.517,4.984-0.598c5.014,4.252,6.98-0.236,9.648-2.933c2.441-2.467,4.799-5.027,7.359-7.366
		c21.65-19.789,45.391-36.902,69.184-53.952c2.117-1.517,5.398-2.485,4.727-6.25c-0.434,0-0.869,0-1.303,0
		c-2.639,2.057-5.92,2.065-8.963,2.54c-32.404,5.059-62.322,15.767-87.9,37.139c-7.738,6.466-16.377,11.88-26.387,15.139
		c-1.508-7.296,1.584-14.021,0.432-22.109c-2.563,4.969-4.859,8.797-6.578,12.869c-5.545,13.119-14.602,23.501-25.279,32.543
		c-8.766,7.422-17.866,14.449-26.828,21.64c-7.905,6.345-17.153,9.13-27.077,9.525c-4.031,0.16-6.042,1.429-6.269,5.508
		c-0.472,8.472-3.504,15.399-11.762,19.161c-1.142,0.52-2.02,1.622-3.012,2.462c-19.213,16.287-34.08,36.293-48.489,56.689
		c-1.363,1.929-2.388,4.029-5.104,4.613c-16.213,3.477-27.122,14.155-35.253,27.629c-9.638,15.973-19.863,31.539-30.923,46.508
		c-29.805,40.344-57.627,81.829-73.555,129.905c-4.848,14.627-13.227,25.814-24.715,35.594
		c-14.432,12.287-26.996,26.355-36.154,43.144c-17.779,32.59-31.585,66.781-40.51,102.834c-2.705,10.926-5.334,22.037-4.002,33.99
		c7.939-3.699,14.473-8.131,19.949-14.137c9.225-10.113,15.121-22.143,19.656-34.824c3.133-8.76,7.789-16.326,14.176-23.004
		c10.986-11.488,20.575-23.99,27.249-38.551C11.936,469.096,21.121,454.885,33.268,442.439z M-47.608,516.088L-47.608,516.088
		c-0.161-0.194-0.325-0.391-0.489-0.582c0.557-0.656,1.104-1.357,1.99-0.408C-46.609,515.426-47.11,515.754-47.608,516.088z"/>
	<path fill-rule="evenodd" clip-rule="evenodd" fill="#FBC400" d="M366.203,438.113c3.285-2.449,4.936-6.479,6.648-10.264
		c3.896-8.62,3.947-8.567,11.896-4.08c1.35,0.762,2.559,2.156,4.781,1.727c-1.904-5.351-3.965-10.31-5.432-15.44
		c-3.111-10.899-4.717-22.6,2.299-31.904c6.088-8.075,10.828-16.57,15.266-25.454c3.385-6.778,6.994-13.449,12.021-19.21
		c3.365-3.857,6.178-4.34,8.688,1.009c2.369,5.05,5.197,9.886,7.824,14.816c1.434-11.09,1.48-22.016,2.193-32.943
		c1.432-21.955,5.916-43.05,14.979-63.118c3.576-7.921,6.277-8.831,14.799-6.092c3.775,1.213,6.91,4.199,11.332,4.393
		c-0.035-4.893-0.959-9.302,0.178-13.892c3.938-15.925,12.484-29.375,22.111-42.235c17.627-23.552,38.98-43.627,60.131-63.885
		c4.686-4.488,10.092-8.688,12.381-14.89c4.736-12.835,13.68-22.409,22.943-31.886c3.541-3.623,7.719-6.715,10.541-11.441
		c-1.084-0.127-1.799-0.437-2.33-0.24c-6.275,2.321-12.574,4.585-18.768,7.116c-29.912,12.224-53.719,32.894-76.326,55.244
		c-14.768,14.602-27.701,30.703-40.402,47.11c-13.391,17.293-30.891,30.883-44.951,47.69c-11.889,14.21-21.945,29.456-29.906,46.204
		c-5.482,11.535-8.902,24.269-17.885,33.885c-6.621,7.087-13.123,14.169-18.16,22.541c-11.25,18.704-19.75,39.051-32.873,56.599
		c-14.938,19.976-20.834,42.418-20.49,66.967c0.119,8.477-2.02,16.475-5.825,24.15c-4.276,8.633-10.556,16.113-13.784,25.359
		c-4.927,14.115-6.703,28.775-7.559,43.506c-0.774,13.363-3.182,25.322-14.992,33.879c-7.854,5.689-13.858,13.652-15.967,23.152
		c-4.127,18.6-11.455,36.213-15.896,54.67c-3.044,12.645-6.918,25-12.473,36.715c-1.998,4.213-1.764,7.492,0.91,10.604
		c3.137,3.65,3.117,7.316,1.424,11.42c-1.399,3.391-2.439,6.945-4.031,10.234c-11.518,23.797-12.581,48.936-9.163,74.482
		c0.686,5.129,1.124,10.768,4.55,16.262c3.373-6.178,6.979-11.34,9.158-17.047c5.98-15.656,10.676-31.74,13.689-48.264
		c1.727-9.471,2.928-19.268,8.236-27.457c18.998-29.309,33.966-60.316,41.457-94.629c1.136-5.207,3.817-8.814,9.41-9.123
		c4.01-0.223,4.1-2.002,3.737-5.453c-0.926-8.828,0.567-17.498,2.845-26.701c5.85,4.447,8.805,10.852,15.062,15.186
		c-0.538-2.15-0.911-3.365-1.144-4.605c-1.342-7.199-4.39-13.994-4.588-21.492c-0.279-10.58,2.756-19.373,11.16-26.408
		c10.646-8.916,19.252-19.314,21.154-33.869c1.822-13.947,5.676-27.52,8.055-41.346
		C347.898,463.482,352.227,448.539,366.203,438.113z M427.127,314.97c-0.298,4.1-1.089,8.183-1.604,12.275
		c-0.003-0.001-0.005-0.001-0.008-0.002C426.037,323.152,426.829,319.069,427.127,314.97z M417.547,325.566
		c-2.016-0.052-3.635,0.407-5.213,1.484C413.912,325.973,415.531,325.514,417.547,325.566z"/>
	<path fill-rule="evenodd" clip-rule="evenodd" fill="#FBC400" d="M668.16,108.6c-29.98,14.242-56.771,33.53-77.779,58.789
		c-29.752,35.769-58.451,72.532-84.455,111.231c-4.326,6.441-8.697,13.256-9.723,21.044c-1.42,10.784-7.715,18.537-14.109,26.447
		c-6.258,7.742-13.355,15.021-17.074,24.402c-13.498,34.05-31.656,65.822-47.807,98.572c-9.514,19.289-15.586,39.168-14.941,61.076
		c0.334,11.371,0.018,23.348-5.082,33.805c-9.418,19.314-11.367,39.813-11.416,60.689c-0.023,10.287-2.35,19.744-7.541,28.459
		c-4.871,8.178-10.156,16.111-15.26,24.152c-8.043,12.674-14.725,25.916-17.748,40.797c-5.453,26.836-4.488,53.949-3.266,81.023
		c0.309,6.816-0.119,13.967,2.498,21.271c0.959-1.123,1.361-1.619,1.791-2.092c13.924-15.355,22.166-34.031,30.172-52.715
		c10.982-25.643,21.602-51.482,23.01-79.92c0.471-9.525,3.791-18.123,8.449-26.305c4.072-7.152,7.986-14.441,10.188-22.383
		c3.904-14.088,10.182-27.049,17.535-39.582c5.939-10.123,10.297-20.865,12.975-32.354c2.514-10.777,4.818-21.547,4.895-32.656
		c0.133-19.65,8.408-35.896,20.77-50.52c10.873-12.859,16.002-27.746,17.096-44.594c0.955-14.71,5.232-28.913,11.293-42.37
		c3.457-7.68,7.416-8.203,14.387-3.528c5.691,3.814,10.644,8.727,17.027,11.51c-1.696-6.583-6.241-11.638-9.531-17.345
		c-2.408-4.173-3.385-8.378-2.957-13.026c1.838-19.893,6.305-39.207,12.246-58.266c3.285-10.537,9.518-16.772,20.734-17.278
		c3.234-0.146,4.689-1.132,4.318-4.624c-1.338-12.61,3.883-23.243,10.57-33.306c7.363-11.079,16.193-20.967,26.143-29.736
		c15.711-13.848,29.354-29.505,41.807-46.254c13.014-17.501,24.648-35.864,35.26-56.52C670.313,107.587,669.234,108.09,668.16,108.6
		z M656.705,122.688c-0.184-0.171-0.362-0.348-0.535-0.529c0.328-0.142,0.656-0.284,0.982-0.425
		C657.004,122.051,656.854,122.37,656.705,122.688z"/>
	<path fill-rule="evenodd" clip-rule="evenodd" fill="#FBC400" d="M534.096,382.877c-0.019-0.008-0.035-0.018-0.053-0.026
		c0.005,0.021,0.012,0.042,0.018,0.063L534.096,382.877z"/>
</g>
</svg>
