<?xml version="1.0" encoding="utf-8"?>
<!-- Generator: Adobe Illustrator 15.0.2, SVG Export Plug-In . SVG Version: 6.00 Build 0)  -->
<!DOCTYPE svg PUBLIC "-//W3C//DTD SVG 1.1//EN" "http://www.w3.org/Graphics/SVG/1.1/DTD/svg11.dtd">
<svg version="1.1" id="Calque_1" xmlns="http://www.w3.org/2000/svg" xmlns:xlink="http://www.w3.org/1999/xlink" x="0px" y="0px"
	 width="1000px" height="1000px" viewBox="0 0 1000 1000" enable-background="new 0 0 1000 1000" xml:space="preserve">
<path id="_x3C_Tracé_x3E_" fill="#FECD00" d="M892.631,515.013c0,189.467-135.252,347.349-314.486,382.346
	c-24.293,4.762-49.418,7.254-75.113,7.254c-27.427,0-54.197-2.839-80.015-8.225c-176.774-36.898-309.583-193.64-309.583-381.375
	c0-215.18,174.437-389.599,389.599-389.599S892.631,299.833,892.631,515.013z"/>
<circle fill="#004088" cx="503.031" cy="515.007" r="378.344"/>
<circle id="cercle_blanc" fill="#FFFFFF" cx="503.031" cy="515.007" r="287.437"/>
<path id="jaune_du_ballon" fill="#FDCD00" d="M781.811,515.013c0,5.68-0.172,11.308-0.52,16.899
	c-0.121,2.32-0.293,4.623-0.484,6.927c-5.541,65.366-33.627,124.343-76.482,169.051c-1.611,1.663-3.238,3.326-4.865,4.937
	c-50.406,50.06-119.807,80.966-196.428,80.966c-61.315,0-117.988-19.79-164.03-53.348c-3.065-2.217-6.095-4.52-9.056-6.892
	c-48.501-38.459-83.894-92.708-98.421-154.991c-0.52-2.27-1.022-4.554-1.49-6.84c-3.792-18.303-5.783-37.281-5.783-56.709
	c0-46.284,11.272-89.936,31.237-128.359c1.264-2.424,2.545-4.831,3.878-7.204c47.635-85.435,138.905-143.217,243.664-143.217
	c35.254,0,68.984,6.546,100.031,18.494c0.313,0.104,0.605,0.225,0.918,0.346c2.234,0.866,4.467,1.766,6.666,2.701
	c62.338,26.095,113.191,74.215,142.818,134.611c1.074,2.199,2.131,4.398,3.137,6.632
	C772.789,434.34,781.811,473.629,781.811,515.013z"/>
<path id="Tracé_ballon" fill="#FFFFFF" d="M432.662,506.857c44.362-38.77,80.897-69.002,88.151-74.959
	c35.758,8.121,98.613,30.909,109.643,34.943c12.729,47.41,18.129,101.417,18.945,110.161c-11.74,16.519-69.557,66.838-79.031,75.044
	c-51.771-12.69-101.363-29.886-110.852-33.227C451.206,591.601,431.952,524.295,432.662,506.857z M290.258,574.63
	c10.302-53.245,34.908-81.59,40.137-87.114c29.211,1.593,82.923,16.675,95.322,20.243c0.156,22.838,22.181,96.637,26.856,112.048
	c-32.985,17.801-80.622,36.103-88.881,39.236C338.43,647.909,296.354,584.033,290.258,574.63z M502.667,768.962
	c-79.582-2.788-110.057-33.142-112.792-36.05c-2.182-4.19-22.805-44.345-22.839-67.721c10.632-4.053,57.626-22.304,89.972-39.914
	c9.074,3.204,59.134,20.59,111.493,33.438c3.826,13.853,14.148,58.041,16.52,68.222
	C546.979,757.258,507.188,767.837,502.667,768.962z M691.803,701.829c-46.543,23.879-89.588,23.637-100.115,23.151
	c-2.564-10.942-12.555-53.765-16.467-67.963c10.578-9.143,65.383-56.898,79.113-75.063c7.652,2.355,33.557,10.753,68.068,26.164
	C720.531,631.478,695.598,692.636,691.803,701.829z M725.086,601.729c-34.961-15.601-61.244-24.104-68.898-26.459
	c-1.109-11.532-6.633-64.084-19.115-110.455c13.92-21.177,40.586-64.431,46.49-74.041c28.537,4.433,50.182,19.584,54.129,22.51
	c15.48,34.302,26.787,110.456,28.205,120.326C743.283,578.684,729.465,596.604,725.086,601.729z M772.514,530.943
	c-2.184-14.979-12.85-84.672-27.949-119.235c3.24-3.515,8.574-9.211,12.037-12.691c-1.006-2.233-2.063-4.433-3.137-6.632
	c-3.496,3.342-10.059,10.39-13.436,14.026c-7.135-5.004-28.189-18.373-55.809-22.545c-3.947-8.623-22.615-45.038-72.275-85.054
	c0.121-6.407,0.451-28.987-1.299-41.039c-2.199-0.935-4.432-1.835-6.666-2.701c-0.313-0.121-0.605-0.242-0.918-0.346
	c1.975,9.247,2.131,33.678,1.975,42.284c-20.814,0.294-89.297,1.697-99.079,7.861l3.669,5.853c6.686-4.19,62.875-6.39,97.609-6.805
	c48.465,38.943,67.063,75.081,70.664,82.838c-5.332,8.674-31.738,51.531-45.955,73.262c-13.246-4.831-74.215-26.822-109.537-34.874
	c-2.719-6.736-12.781-34.614-7.586-66.283l-6.838-1.126c-5.387,32.831,4.398,61.021,7.738,69.366
	c-8.641,7.134-44.241,36.657-87.269,74.232c-10.787-3.151-65.296-18.666-96.568-20.658c-11.359-56.5-15.377-90.923-16.156-98.162
	c52.657-62.197,113.936-86.837,114.542-87.08l-2.527-6.441c-0.642,0.242-63.357,25.418-117.157,88.88
	c-16.588-0.502-39.635,0.814-51.219,1.575c-1.333,2.373-2.615,4.78-3.878,7.204c8.623-0.606,35.046-2.32,53.522-1.887
	c1.125,9.973,5.367,44.154,16.242,98.092c-6.165,6.441-30.684,34.856-41.488,88.829c-8.692-0.451-34.025-1.559-53.73,0.034
	c0.468,2.286,0.97,4.57,1.49,6.84c19.982-1.507,46.18-0.261,53.106,0.122c6.978,10.803,48.206,73.33,75.478,86.317
	c0,21.677,15.463,54.838,21.506,66.959c-13.696,0.987-42.613,1.471-51.669,1.593c2.961,2.372,5.991,4.675,9.056,6.892
	c10.389-0.175,35.826-0.728,46.7-1.89c6.666,6.721,39.081,34.737,117.208,37.334l0.451,0.018l0.45-0.104
	c1.817-0.416,44.535-10.494,86.18-43.965c8.691,0.59,53.764,2.13,104.102-23.428c1.99,1.61,4.016,3.256,5.367,4.416
	c1.627-1.61,3.254-3.273,4.865-4.937c-1.576-1.385-3.725-3.133-5.611-4.656c5.334-12.971,29.453-72.639,30.666-95.894
	c3.793-4.156,17.924-21.386,42.146-69.522c3.705,0.295,7.549,0.693,9.281,1.021c0.191-2.304,0.363-4.606,0.484-6.927
	C778.746,531.498,775.162,531.151,772.514,530.943z"/>
<g id="Loup">
	<path fill="#004088" d="M624.281,152.392c0,0,6.701,22.51,6.287,30.527c-0.451,8,0,6.06-7.152,11.463
		c-7.15,5.402-32.258,33.558-35.496,60.813c-3.238,27.289-2.598,65.799-25.748,89.833c-23.168,24.034-77.141,45.748-83.479,52.518
		c0,0-2.458-9.437-32.328-36.726c-29.87-27.255-53.678-57.643-32.034-103.529c0,0-0.225-0.035-0.676-0.035
		c-1.887,0-7.827,0.571-19.531,6.25c0,0,7.011-21.505,34.267-47.479c-0.382,0-6.995-0.051-17.368-3.653
		c-10.372-3.584-24.519-10.735-39.982-24.917c0,0,7.792-5.403,26.181-8.45c18.407-3.014,34.146-2.597,49.142-16
		c14.995-13.436,33.107-27.705,41.557-32.034c3.186-1.644,9.662-2.008,17.056-2.008c6.025,0,12.674,0.242,18.631,0.242
		c6.061,0,11.428-0.259,14.736-1.281c10.613-3.238,80.516-39.167,80.516-39.167s4.779,8.865,8.242,20.779
		C630.568,121.449,637.494,134.643,624.281,152.392z"/>
	<path fill="#FDCD00" d="M633.443,112.427c-0.486-1.523-0.953-2.943-1.352-4.346c-3.584-12.277-8.434-21.402-8.641-21.783
		l-2.408-4.502l-4.553,2.338c-19.324,9.939-71.324,36.275-79.65,38.838c-3.412,1.04-10.807,1.04-13.23,1.04
		c-2.926,0-6.096-0.07-9.158-0.121c-3.153-0.069-6.392-0.121-9.473-0.121c-10.234,0-15.862,0.744-19.429,2.579
		c-9.662,4.952-28.881,20.466-42.647,32.779c-11.083,9.904-22.321,11.411-36.553,13.315c-3.221,0.433-6.528,0.882-9.957,1.454
		c-19.34,3.169-27.947,9.039-28.311,9.298l-5.333,3.706l4.78,4.381c20.38,18.684,38.821,25.713,49.937,28.345
		c-21.887,23.186-27.999,41.419-28.276,42.268l-3.775,11.601l10.978-5.316c3.827-1.853,6.944-3.118,9.421-3.965
		c-15.879,43.704,8.189,74.093,37.054,100.447c25.8,23.567,30.285,33.038,30.805,34.302l1.696,10.303l7.117-8.173
		c1.61-1.714,11.083-6.667,19.429-11.013c20.414-10.648,48.344-25.228,63.996-41.453c20.643-21.419,23.5-53.228,25.783-78.803
		c0.451-4.952,0.867-9.627,1.387-14.008c3.08-25.938,27.514-52.778,33.469-57.297c1.195-0.9,2.148-1.576,2.98-2.165
		c5.281-3.74,5.818-5.385,6.162-12.139l0.053-1.021c0.398-7.29-3.965-23.462-5.766-29.853
		C641.25,136.652,636.939,123.268,633.443,112.427z M630.568,182.919c-0.451,8,0,6.06-7.152,11.463
		c-7.15,5.402-32.258,33.558-35.496,60.813c-3.238,27.289-2.598,65.799-25.748,89.833c-23.168,24.034-77.141,45.748-83.479,52.518
		c0,0-2.458-9.437-32.328-36.726c-29.87-27.255-53.678-57.643-32.034-103.529c0,0-0.225-0.035-0.676-0.035
		c-1.887,0-7.827,0.571-19.531,6.25c0,0,7.011-21.505,34.267-47.479c-0.382,0-6.995-0.051-17.368-3.653
		c-10.372-3.584-24.519-10.735-39.982-24.917c0,0,7.792-5.403,26.181-8.45c18.407-3.014,34.146-2.597,49.142-16
		c14.995-13.436,33.107-27.705,41.557-32.034c3.186-1.644,9.662-2.008,17.056-2.008c6.025,0,12.674,0.242,18.631,0.242
		c6.061,0,11.428-0.259,14.736-1.281c10.613-3.238,80.516-39.167,80.516-39.167s4.779,8.865,8.242,20.779
		c3.465,11.913,10.391,25.107-2.822,42.856C624.281,152.392,630.982,174.902,630.568,182.919z"/>
	<g>
		<g>
			<path fill="#FDCD00" d="M389.657,188.104c0,0,19.913-2.164,35.93-6.709c16.016-4.546,15.367,1.515,57.573-26.623
				c0,0-17.099,31.817-50.432,36.795c0,0,9.09,9.307,48.268,5.411c0,0-14.935,11.255-31.168,11.904S393.979,195.593,389.657,188.104
				z"/>
			<path fill="#FDCD00" d="M599.535,109.248l15.945-10.39c0,0,6.059,10.389,4.039,13.708
				C617.502,115.885,607.188,122.501,599.535,109.248z"/>
		</g>
		<g>
			<path fill="#FFFFFF" d="M595.928,111.268c0,0,3.463,6.493,7.143,9.091c3.68,2.597,9.09,0.433,12.338,0
				c3.246-0.434,6.494-1.948,7.574,9.956c1.084,11.905-7.141,14.935-7.141,14.935s3.895-11.905-1.518-20.563
				c0,0-0.811,2.977-2.541,6.277c-1.732,3.3-13.15,16.017-19.102,20.562c-5.953,4.545-26.553,19.625-25.973,34.487
				c0,0,5.627-4.041,17.172-7.503c11.543-3.463,28.764-4.474,39.201-4.474c0,0,1.199,4.329,1.488,9.235
				c0.291,4.906-11.111,4.33-24.529,7.937c-13.42,3.606-37.879,9.451-51.73,18.758c-13.854,9.307-26.189,20.562-30.736,30.735
				c0,0,22.439-14.574,31.748-2.165c0,0,16.23-26.767,46.389-34.559c0,0-18.969,23.521-24.635,40.404
				c-5.666,16.882-14.105,43.331-9.563,69.767c0,0-17.455-8.25-19.48-32.033c0,0-30.735,33.692-26.838,62.046
				c0,0-19.582-5.392-20.938-38.193c-1.356-32.8,6.003-44.705,6.003-44.705s-18.398,13.204-22.726,20.346
				c0,0-0.867-14.502,16.449-43.289c17.315-28.788,27.921-33.116,27.921-33.116s-30.085,9.842-40.258,19.48
				c0,0,2.164-22.943,33.981-50.431c0,0-25.324,9.956-30.302,11.038c0,0-0.649-9.523,10.822-22.943
				c11.472-13.42,12.851-23.363,31.312-19.913C547.928,146.261,563.535,124.687,595.928,111.268z"/>
			<path fill="#FFFFFF" d="M590.949,173.928c0,0,5.088-1.137,8.82-1.461c0,0-5.357-8.026-7.664-10.552
				C592.105,161.916,590.949,164.801,590.949,173.928z"/>
			<path fill="#FFFFFF" d="M607.688,171.8c0,0,4.186-0.433,8.516-0.649c0,0-1.371-7.937-3.391-11.616
				C612.813,159.535,608.408,167.183,607.688,171.8z"/>
		</g>
		<g>
			<path fill="#FECD00" d="M544.092,142.571c-8.174,20.761-18.953,24.813-27.33,24c-7.549-0.733-13.148-5.419-13.148-5.419
				L544.092,142.571z"/>
			<path fill="#004088" d="M544.67,136.617c0.109,0.974,0.313,3.31,0.313,3.31c-1.389,0.046-3.289-1.99-3.289-1.99
				c-0.379,0.806,0.412,3.331,0.412,3.331c-1.668,0.222-4.07-2.586-4.07-2.586c0.078,1.961,1.385,3.663,1.508,3.816l-0.066,0.03
				c-2.037,0.126-5.967-3.108-5.967-3.108c0.172,1.342,1.953,4.8,1.953,4.8c-2.824,0.568-6.473-3.389-6.473-3.389
				c0.385,1.717,2.451,4.74,2.451,4.74c-3.857,0.649-6.939-4.125-6.939-4.125c-0.008,1.925,3.482,5.557,3.482,5.557
				c-2.973,0.254-6.504-4.953-6.504-4.953c0.279,2.074,2.797,6.753,2.797,6.753c-3.873,0.829-6.426-6.617-6.426-6.617
				c0.893,3.241,2.248,7.368,2.248,7.368c-3.705,0.361-7.674-4.959-7.674-4.959c0.738,3.682,4.479,7.336,4.479,7.336
				c-4.051,0.209-7.352-5.739-7.352-5.739c0.553,2.439,2.99,7.276,2.99,7.276c-2.765-0.029-7.341-5.307-7.341-5.307
				c0.399,2.086,4.052,6.938,4.052,6.938c-3.428,0.57-8.098-4.943-8.098-4.943c0.733,2.357,4.289,6.325,4.289,6.325
				c-4.794-0.801-7.265-2.76-7.265-2.76c1.02,2.508,3.66,4.94,3.66,4.94c-3.243-0.105-6.564-2.249-6.564-2.249
				c1.129,1.994,4.679,4.247,4.679,4.247l2.38,2.005c0.259,0.199,6.171,5.07,14.236,5.854c8.514,0.827,20.527-2.861,29.344-25.211
				l1.801-4.558C546.512,138.754,544.67,136.617,544.67,136.617z M516.762,166.571c-7.549-0.733-13.148-5.419-13.148-5.419
				l40.479-18.581C535.918,163.333,525.139,167.384,516.762,166.571z"/>
		</g>
	</g>
</g>
<path id="Tour_Abbatiale" fill="#FFFFFF" d="M577.039,886.129c-23.932,4.744-48.674,7.236-74.008,7.236
	c-27.098,0-53.522-2.857-78.994-8.276c0.364-3.221,0.745-6.269,1.213-8.761l3.428-0.745l2.216-3.845l0.66-27.047
	c0,0,2.267-8.275,7.306-11.688v-12.121c0,0,6.753-7.081,7.845-10.214l0.536-5.093l1.194-3.565c0,0,0.97-1.854,1.835-8.503
	c0,0,0,3.896,0.865,8.226l2.269,4.605v5.143l6.182,5.68l-1.299,13.523l2.216,1.939v2.494l1.992,0.865v-3.135l-0.936-1.627
	l4.97-52.57l11.826-14.008v-15.29l3.463-4.034c0,0-1.004-7.082,2.737-8.226l9.662-30.44c0,0-1.801-3.774-1.801-9.627
	c0-5.836,7.862-10.598,7.862-10.598v-5.802l1.057-1.834l0.605-8.711l0.865,8.556l1.247,2.147v5.747c0,0,8.172,2.806,8.172,11.585
	c0,8.761-2.423,8.761-2.423,8.761l6.597,27.378l0.33,3.185c0,0,3.566,2.009,3.773,4.399h-1.123l0.379,12.864l13.629,17.593v40.361
	l3.08,0.763l0.711-13.419l6.113-6.113c0,0-0.156-6.389,1.072-7.791c1.246-1.403,2.926-5.629,2.979-12.07
	c0,0,3.463,3.084,5.143,11.586c0,0,3.203,0.104,3.029,8.432l3.361,3.082l0.328,12.068c0,0,4.277,2.702,6.545,12.728v35.6
	c0,0,2.164,1.249,4.051-0.865c1.906-2.111,3.412,1.196,1.039,3.136c-2.389,1.957,0.053,3.896,0.053,3.896l6.875,5.73
	c0,0,0.26,2.442-1.248,2.979C575.98,872.587,576.346,878.509,577.039,886.129z"/>
</svg>
